<svg xmlns="http://www.w3.org/2000/svg" viewBox="0 0 1600 900">
  <defs>
    <linearGradient id="bg" x1="0" y1="0" x2="1" y2="1">
      <stop offset="0" stop-color="#2a3042"/>
      <stop offset="0.5" stop-color="#77445c"/>
      <stop offset="1" stop-color="#d08f76"/>
    </linearGradient>
    <radialGradient id="light" cx="0.7" cy="0.2" r="0.34">
      <stop offset="0" stop-color="#f7ddb8" stop-opacity="0.82"/>
      <stop offset="1" stop-color="#f7ddb8" stop-opacity="0"/>
    </radialGradient>
  </defs>
  <rect width="1600" height="900" fill="url(#bg)"/>
  <rect width="1600" height="900" fill="url(#light)"/>
  <g opacity="0.26" stroke="#fff7ef" stroke-linecap="round">
    <path d="M0 170C220 90 400 70 670 180s510 140 930-30" fill="none" stroke-width="3"/>
    <path d="M0 210C210 120 440 120 700 230s490 110 900-10" fill="none" stroke-width="2"/>
  </g>
  <g opacity="0.78">
    <circle cx="160" cy="180" r="18" fill="#f7cb7a"/>
    <circle cx="250" cy="230" r="14" fill="#fff4e5"/>
    <circle cx="350" cy="160" r="11" fill="#f6b4b7"/>
    <circle cx="1070" cy="210" r="16" fill="#fff1d7"/>
    <circle cx="1170" cy="170" r="10" fill="#f7b7b1"/>
    <circle cx="1260" cy="230" r="14" fill="#f6cd82"/>
  </g>
  <g opacity="0.18" fill="#fff7ef">
    <circle cx="1320" cy="560" r="150"/>
    <circle cx="1450" cy="670" r="95"/>
    <circle cx="250" cy="640" r="120"/>
  </g>
</svg>
