<svg xmlns="http://www.w3.org/2000/svg" viewBox="0 0 1600 1000">
  <defs>
    <linearGradient id="bg" x1="0" y1="0" x2="1" y2="1">
      <stop offset="0" stop-color="#20273a"/>
      <stop offset="0.55" stop-color="#5f3146"/>
      <stop offset="1" stop-color="#c07a71"/>
    </linearGradient>
    <radialGradient id="glowA" cx="0.22" cy="0.24" r="0.36">
      <stop offset="0" stop-color="#f6d7aa" stop-opacity="0.85"/>
      <stop offset="1" stop-color="#f6d7aa" stop-opacity="0"/>
    </radialGradient>
    <radialGradient id="glowB" cx="0.82" cy="0.16" r="0.3">
      <stop offset="0" stop-color="#f7a7b0" stop-opacity="0.56"/>
      <stop offset="1" stop-color="#f7a7b0" stop-opacity="0"/>
    </radialGradient>
  </defs>
  <rect width="1600" height="1000" fill="url(#bg)"/>
  <rect width="1600" height="1000" fill="url(#glowA)"/>
  <rect width="1600" height="1000" fill="url(#glowB)"/>
  <g opacity="0.25" fill="none" stroke="#fff3ea">
    <path d="M0 760C270 670 390 700 600 820s430 100 1000-90" stroke-width="2"/>
    <path d="M0 820C260 720 430 770 620 860s430 60 980-70" stroke-width="1.6"/>
    <path d="M0 280C200 360 380 380 610 260s500-150 990 60" stroke-width="1.8"/>
  </g>
  <g fill="#fff5ee" opacity="0.13">
    <circle cx="1180" cy="220" r="130"/>
    <circle cx="1320" cy="120" r="70"/>
    <circle cx="210" cy="180" r="90"/>
  </g>
  <g opacity="0.65">
    <circle cx="1280" cy="540" r="10" fill="#fff6ef"/>
    <circle cx="1360" cy="600" r="6" fill="#f4d7a2"/>
    <circle cx="1220" cy="640" r="8" fill="#f8b9b4"/>
    <circle cx="260" cy="620" r="8" fill="#f6d5b3"/>
    <circle cx="330" cy="690" r="5" fill="#fff7f0"/>
  </g>
</svg>
